<svg fill="#3587A3" xmlns="http://www.w3.org/2000/svg" xmlns:xlink="http://www.w3.org/1999/xlink" version="1.1" x="0px" y="0px" viewBox="17 176.375 48 48" enable-background="new 17 176.375 48 48" xml:space="preserve"><path fill="#3587A3" d="M41,203.896c1.943,0,3.521-1.578,3.521-3.521c0-1.943-1.578-3.521-3.521-3.521  c-1.944,0-3.521,1.578-3.521,3.521C37.479,202.318,39.056,203.896,41,203.896z M48.602,193.584c1.061,0,1.918-0.859,1.918-1.917  c0-1.06-0.857-1.917-1.918-1.917c-1.058,0-1.916,0.857-1.916,1.917C46.686,192.725,47.544,193.584,48.602,193.584z M48.042,200.375  c0,3.889-3.153,7.042-7.042,7.042c-3.889,0-7.042-3.153-7.042-7.042c0-0.818,0.147-1.602,0.404-2.334h-3.404v9.545  c0,1.648,1.349,2.997,2.998,2.997h13.589c1.648,0,2.997-1.349,2.997-2.997v-12.545H45.59  C47.089,196.333,48.042,198.241,48.042,200.375z M41,176.375c-13.255,0-24,10.745-24,24s10.745,24,24,24s24-10.745,24-24  S54.255,176.375,41,176.375z M53.814,210.107c0,2.199-1.799,4-4,4H31.685c-2.2,0-4-1.801-4-4v-18.131c0-2.201,1.8-4,4-4h18.131  c2.199,0,4,1.799,4,4v18.131H53.814z"></path></svg>