<svg fill="#FFFFFF" xmlns="http://www.w3.org/2000/svg" xmlns:xlink="http://www.w3.org/1999/xlink" version="1.1" x="0px" y="0px" viewBox="0 0 100 100" enable-background="new 0 0 100 100" xml:space="preserve"><path d="M23.69,59.216c0,0-1.013,17.611,6.921,17.611h0.394v6.302c0,0-7.428-0.132-8.834-14.367c0,0-0.394-3.582-0.563-9.716  c0,0,0.301-1.05,1.088-1.05C23.484,57.996,23.69,59.216,23.69,59.216z"></path><rect x="48.467" y="67.566" width="1.05" height="0.638"></rect><path d="M68.724,69.85h-0.003l-0.018-1.265H29.336v1.323c-0.149,0.229-0.772,1.096-1.875,1.486v2.85h43.063v-2.85  C70.523,71.395,69.249,70.825,68.724,69.85z"></path><rect x="31.511" y="67.111" width="35.037" height="0.226"></rect><path d="M48.968,65.758c-0.272,0-0.507,0.22-0.507,0.492c0,0.008,0.005,0.015,0.005,0.022v0.609h1.05v-0.638  C49.517,65.973,49.24,65.758,48.968,65.758z"></path><path d="M70.974,88.907H50.234l-0.048,0.98c0,0-0.013,0.091-0.055,0.21c0.568,0.303,0.96,0.895,0.96,1.583  c0,0.995-0.806,1.801-1.8,1.801c-0.994,0-1.8-0.806-1.8-1.801c0-0.631,0.326-1.185,0.817-1.506c-0.053-0.15-0.066-0.301-0.066-0.406  c0-0.05-0.011-0.378-0.027-0.861H27.91l-1.5,2.851v3.751h46.064v-3.751L70.974,88.907z"></path><path d="M49.215,77.277c1.681,0,1.459,2.66,1.459,2.66l-0.41,8.37h16.883V74.804h-35.41v13.504h16.458  c-0.097-2.751-0.307-8.431-0.307-8.431S47.535,77.277,49.215,77.277z"></path><path d="M49.85,89.978c0.003-0.024,0.004-0.039,0.004-0.039l0.309-9.369c0,0,0.141-2.505-0.927-2.505  c-1.07,0-0.844,2.448-0.844,2.448s0.225,9.03,0.225,9.313c0,0.052,0.003,0.117,0.01,0.186c0.206-0.083,0.43-0.131,0.665-0.131  C49.488,89.88,49.673,89.919,49.85,89.978z"></path><circle cx="49.292" cy="91.681" r="1.35"></circle><rect x="19.583" y="58.574" fill="#FFFFFF" width="11.535" height="3.87"></rect><rect x="20.652" y="59.271" width="9.959" height="2.476"></rect><polyline points="47.753,64.374 49.779,65.574 51.43,66.138 50.229,65.048 48.141,63.766 "></polyline><path d="M42.286,63.687c-0.145-0.018-0.294-0.053-0.442-0.08c0.387,0.979,1.147,1.697,2.064,1.89  C43.192,65.127,42.616,64.482,42.286,63.687z"></path><path d="M43.933,58.82c-1.022,0.203-1.852,1.059-2.193,2.201c0.119-0.034,0.264-0.072,0.448-0.112  C42.494,59.979,43.127,59.229,43.933,58.82z"></path><path d="M45.297,65.296c1.564,0,2.832-1.403,2.832-3.137c0-1.731-1.268-3.136-2.832-3.136c-1.125,0-2.089,0.732-2.546,1.784  c0.469-0.067,1.037-0.11,1.664-0.073c1.664,0.101,2.814,0.224,2.814,1.425c0,0.829-1.13,1.163-1.13,1.163s-1.436,0.524-3.235,0.419  C43.356,64.668,44.256,65.296,45.297,65.296z"></path><path d="M26.785,65.236c1.069,0.787,5.796-0.168,5.796-0.168l8.777-1.858c2.308,0.451,4.445-0.169,4.445-0.169  s1.05-0.318,1.05-0.769c0-0.9-0.824-1.087-2.438-1.162c-1.639-0.076-3.114,0.411-3.114,0.411s-3.15,0.563-7.54,1.407  c-3.211,0.618-4.04,0.062-4.255-0.281c-0.079-0.126-0.078-0.225-0.078-0.225H25.49c0.001,0.025,0.003,0.048,0.005,0.073  C25.555,63.69,25.738,64.465,26.785,65.236z"></path><polygon points="29.786,54.921 25.36,52.294 25.36,58.522 29.786,58.522 "></polygon><polygon points="25.997,51.677 30.048,54.264 38.789,49.444 34.437,43.967 "></polygon><polyline points="35.112,43.292 36.463,42.167 41.039,48.093 39.463,48.918 "></polyline><polyline points="37.138,41.576 38.46,40.225 43.524,46.809 41.779,47.625 "></polyline><path d="M39.013,39.616l0.525,0.825c0,0,11.554-12.342,10.766-31.135c0,0-2.025-5.514-3.488-3.488  C46.816,5.818,48.091,30.651,39.013,39.616z"></path><path d="M39.895,40.816l0.732,1.013c0,0,12.21-8.721,17.443-23.52c0,0-1.575-5.514-4.614-7.54c0,0-0.899-0.675-2.588-1.35  C50.867,9.419,52.949,25.173,39.895,40.816z"></path><path d="M44.34,46.481l-0.573-0.658c0,0,14.57-8.574,32.736-3.693c0,0,4.937,3.184,2.641,4.167  C79.145,46.296,55.073,39.584,44.34,46.481z"></path><path d="M43.48,45.394l-0.829-0.936c0,0,10.916-9.494,26.295-12.119c0,0,5.507,2.988,6.818,6.396c0,0,0.461,1.026,0.752,2.821  C76.518,41.556,61.6,36.078,43.48,45.394z"></path><path d="M41.077,42.279l1.125,1.576c0,0,13.016-10.766,26.146-12.417c0,0-1.726-4.914-4.428-8.065  c-2.7-3.151-5.288-4.501-5.288-4.501S55.931,30.463,41.077,42.279z"></path></svg>